{
  "accessors": [
    {
      "bufferView": 2,
      "componentType": 5126,
      "count": 36518,
      "max": [
        18.85222053527832,
        -3.2239358425140381,
        0.55482280254364014
      ],
      "min": [
        13.803223609924316,
        -4.2375822067260742,
        -4.4392714500427246
      ],
      "type": "VEC3"
    },
    {
      "bufferView": 2,
      "byteOffset": 438216,
      "componentType": 5126,
      "count": 36518,
      "max": [
        0.99983525276184082,
        0.99936568737030029,
        0.99998390674591064
      ],
      "min": [
        -0.99990224838256836,
        -0.99987465143203735,
        -0.99998766183853149
      ],
      "type": "VEC3"
    },
    {
      "bufferView": 3,
      "componentType": 5126,
      "count": 36518,
      "max": [
        0.99999648332595825,
        0.99994242191314697,
        0.99999523162841797,
        1
      ],
      "min": [
        -0.99997371435165405,
        -0.99993020296096802,
        -0.9996456503868103,
        1
      ],
      "type": "VEC4"
    },
    {
      "bufferView": 3,
      "byteOffset": 584288,
      "componentType": 5126,
      "count": 36518,
      "max": [
        0.98823529481887817,
        0.98039215803146362,
        0.99607843160629272,
        1
      ],
      "min": [
        0.023529412224888802,
        0.011764706112444401,
        0,
        1
      ],
      "type": "VEC4"
    },
    {
      "bufferView": 1,
      "componentType": 5126,
      "count": 36518,
      "max": [
        0.99975001811981201,
        0.99975001811981201
      ],
      "min": [
        0.00023999999393709004,
        0.58032000064849854
      ],
      "type": "VEC2"
    },
    {
      "bufferView": 0,
      "componentType": 5125,
      "count": 68322,
      "max": [
        36517
      ],
      "min": [
        0
      ],
      "type": "SCALAR"
    }
  ],
  "asset": {
    "extras": {
      "author": "Siavash Razavi (https://sketchfab.com/sia7ash)",
      "license": "CC-BY-4.0 (http://creativecommons.org/licenses/by/4.0/)",
      "source": "https://sketchfab.com/3d-models/mac-test-1-0c1686895244409f98f2ec08c2cf9fe2",
      "title": "Mac test 1"
    },
    "generator": "Sketchfab-4.81.0",
    "version": "2.0"
  },
  "bufferViews": [
    {
      "buffer": 0,
      "byteLength": 273288,
      "byteOffset": 0,
      "name": "floatBufferViews",
      "target": 34963
    },
    {
      "buffer": 0,
      "byteLength": 292144,
      "byteOffset": 273288,
      "byteStride": 8,
      "name": "floatBufferViews",
      "target": 34962
    },
    {
      "buffer": 0,
      "byteLength": 876432,
      "byteOffset": 565432,
      "byteStride": 12,
      "name": "floatBufferViews",
      "target": 34962
    },
    {
      "buffer": 0,
      "byteLength": 1168576,
      "byteOffset": 1441864,
      "byteStride": 16,
      "name": "floatBufferViews",
      "target": 34962
    }
  ],
  "buffers": [
    {
      "byteLength": 2610440,
      "uri": "scene.bin"
    }
  ],
  "extensionsUsed": [
    "KHR_materials_unlit"
  ],
  "images": [
    {
      "uri": "textures/mac_Material_u1_v1_baseColor.jpeg"
    }
  ],
  "materials": [
    {
      "doubleSided": false,
      "extensions": {
        "KHR_materials_unlit": {}
      },
      "name": "mac_Material_u1_v1",
      "pbrMetallicRoughness": {
        "baseColorFactor": [
          1,
          1,
          1,
          1
        ],
        "baseColorTexture": {
          "index": 0,
          "texCoord": 0
        },
        "metallicFactor": 0,
        "roughnessFactor": 1
      }
    }
  ],
  "meshes": [
    {
      "primitives": [
        {
          "attributes": {
            "COLOR_0": 3,
            "NORMAL": 1,
            "POSITION": 0,
            "TANGENT": 2,
            "TEXCOORD_0": 4
          },
          "indices": 5,
          "material": 0,
          "mode": 4
        }
      ]
    }
  ],
  "nodes": [
    {
      "children": [
        1
      ],
      "name": "RootNode (gltf orientation matrix)",
      "rotation": [
        -0.70710678118654746,
        -0,
        -0,
        0.70710678118654757
      ]
    },
    {
      "children": [
        2
      ],
      "matrix": [
        1,
        0,
        0,
        0,
        0,
        -0.0059802867472171783,
        -0.99998211860656738,
        0,
        0,
        0.99998211860656738,
        -0.0059802867472171783,
        0,
        0,
        -1.8108804225921631,
        -5.6845316886901855,
        1
      ],
      "name": "RootNode (model correction matrix)"
    },
    {
      "children": [
        3
      ],
      "name": "mac.obj.cleaner.materialmerger.gles"
    },
    {
      "mesh": 0,
      "name": ""
    }
  ],
  "samplers": [
    {
      "magFilter": 9729,
      "minFilter": 9987,
      "wrapS": 10497,
      "wrapT": 10497
    }
  ],
  "scene": 0,
  "scenes": [
    {
      "name": "OSG_Scene",
      "nodes": [
        0
      ]
    }
  ],
  "textures": [
    {
      "sampler": 0,
      "source": 0
    }
  ]
}

